<svg xmlns="http://www.w3.org/2000/svg" xmlns:xlink="http://www.w3.org/1999/xlink" width="500" zoomAndPan="magnify" viewBox="0 0 375 374.999991" height="500" preserveAspectRatio="xMidYMid meet" version="1.0"><path stroke-linecap="butt" transform="matrix(0.9375, 0, 0, 0.9375, 0.0000045, 54.670172)" fill="none" stroke-linejoin="miter" d="M 232.341677 82.447655 C 229.670844 72.105987 224.229177 64.980987 215.320843 59.935153 C 210.425009 57.11432 205.179175 55.680986 199.491675 55.680986 C 193.800008 55.680986 188.554174 57.11432 183.904174 59.935153 C 174.950007 64.980987 169.30834 72.105987 166.883339 82.447655 L 122.700003 246.764332 C 145.608338 252.255999 168.07084 239.885165 173.366673 219.005997 L 175.591673 209.90183 L 176.38334 205.25183 L 222.595843 205.25183 L 223.583343 209.90183 L 225.86251 219.005997 C 230.908344 239.885165 253.616679 252.255999 276.27918 246.764332 Z M 215.520843 171.210161 L 183.458341 171.210161 L 199.491675 109.560157 Z M 215.520843 171.210161 " stroke="#5ce1e6" stroke-width="2.02667" stroke-opacity="1" stroke-miterlimit="4"/></svg>